<svg width="24" height="24" viewBox="0 0 24 24" fill="none" xmlns="http://www.w3.org/2000/svg">
<path fill-rule="evenodd" clip-rule="evenodd" d="M20.2721 2.30552C20.0025 2.15465 19.6615 2.25075 19.5104 2.52053L18.7515 3.87664L18.2968 3.62218C18.0817 3.50187 17.811 3.61882 17.7512 3.85796L17.2483 5.87197C17.2094 6.02795 17.2753 6.18945 17.4089 6.27577L11.0717 17.5999C10.9208 17.8697 11.017 18.2106 11.2867 18.3616C11.3731 18.4099 11.4669 18.4328 11.5595 18.4328C11.7554 18.4328 11.9458 18.3298 12.0483 18.1466L18.3856 6.82232C18.529 6.89101 18.7011 6.86275 18.8136 6.74797L20.2673 5.26596C20.4398 5.08998 20.398 4.79803 20.1829 4.67765L19.7282 4.42319L20.4871 3.06709C20.638 2.79738 20.5417 2.45646 20.2721 2.30552ZM19.0894 20.78C19.1643 21.075 19.1 21.3818 18.9132 21.622C18.7263 21.8623 18.4446 22 18.1402 22H4.97969C4.67536 22 4.39362 21.8623 4.20672 21.622C4.01997 21.3818 3.95569 21.075 4.03053 20.78L8.60727 2.73841C8.71764 2.30363 9.10794 2 9.5565 2H13.5635C14.012 2 14.4023 2.30363 14.5126 2.73841L15.6335 7.15673L15.137 8.04406L13.8346 2.91041C13.8032 2.78619 13.6916 2.69945 13.5635 2.69945H9.5565C9.42836 2.69945 9.3168 2.78619 9.28532 2.91041L4.70851 20.952C4.68718 21.0363 4.70543 21.1239 4.75887 21.1925C4.81224 21.2612 4.89275 21.3005 4.97969 21.3005H18.1402C18.2272 21.3005 18.3077 21.2612 18.3611 21.1925C18.4145 21.1239 18.4328 21.0363 18.4114 20.952L16.3369 12.7746L16.8336 11.8873L19.0894 20.78Z" fill="#282828" stroke="#282828" stroke-width="0.5"/>
</svg>
